# xmcd
#
# Track frame offsets:
#	150
#	10823
#	20823
#	30527
#	41853
#	61910
#	75850
#	88218
#	101057
#	112391
#	121086
#	133420
#	148540
#	162836
#	178652
#	188921
#	202197
#	211644
#	224237
#
# Disc length: 3173 seconds
#
# Revision: 0
# Processed by: cddbd v1.5.2PL0 Copyright (c) Steve Scherf et al.
# Submitted via: EasyCDDAExtractor 16.0.8.2
#
DISCID=1d0c6313
DTITLE=Συλλογικός δίσκος - Τα ωραιότερα ιταλικά τραγούδια 6
DYEAR=2011
DGENRE=Ξένη ιταλική
TTITLE0=Marino Marini - Guarda che luna
TTITLE1=Adriano Celentano - Non esiste l' amor
TTITLE2=Mina - Tua
TTITLE3=Renato Carosone - Papaveri e papere
TTITLE4=Ornella Vanoni - Cercami
TTITLE5=Marino Marini - Piccolissima serenata
TTITLE6=Gianni Meccia - Il pullover
TTITLE7=Connie Francis - Ciao ciao bambino
TTITLE8=Johnny Dorelli - Julia
TTITLE9=Adriano Celentano - Desidero te
TTITLE10=Alida Chelli - Dalla mia finestra sul cortile
TTITLE11=Johonny Dorelli - I tuoi occhi
TTITLE12=Sophia Loren - Perche domani
TTITLE13=Giorgio Gaber - Le strade di notte
TTITLE14=Caterina Valente - Mai mai mai
TTITLE15=Connie Francis - Nights of splendor
TTITLE16=Adriano Celentano - Cosi no
TTITLE17=Peppino di Capri - Cinque minuti ancora
TTITLE18=Fred Buscaglione - Love in Portofino
EXTD=
EXTT0=
EXTT1=
EXTT2=
EXTT3=
EXTT4=
EXTT5=
EXTT6=
EXTT7=
EXTT8=
EXTT9=
EXTT10=
EXTT11=
EXTT12=
EXTT13=
EXTT14=
EXTT15=
EXTT16=
EXTT17=
EXTT18=
PLAYORDER=
